<?xml version="1.0" encoding="UTF-8"?>
<svg id="Layer_1" data-name="Layer 1" xmlns="http://www.w3.org/2000/svg" viewBox="0 0 595.28 841.89">
  <defs>
    <style>
      .cls-1 {
        fill: #ea6753;
        stroke: #000;
        stroke-linecap: round;
        stroke-linejoin: round;
        stroke-width: 6px;
      }

      .cls-2 {
        letter-spacing: .08em;
      }

      .cls-3 {
        fill: #231f20;
        font-family: SegoeScript, 'Segoe Script';
        font-size: 72px;
      }
    </style>
  </defs>
  <path class="cls-1" d="M194.95,346.56c-2.61-1.64-5.52-1.21-8.19-.65-3.52.74-6.9,2.16-10.33,3.33-1.98.67-4.03,1.22-5.88,2.17-5.87,2.99-8.63,8.19-10.23,14.47-.78,3.06-1.09,5.78.33,8.57,1.83,3.58,3.73,7.17,7.57,8.96,3.27,1.52,6.67,1.14,10.1.48,2-.38,4.07-.67,6.1-.62,3.26.08,5.93,2.25,6.42,5.95.54,4.06,2.38,7.49,3.93,11.08.82,1.89,1.27,3.74,1.23,5.79-.05,3.06.08,6.13-.03,9.19-.2,5.57,5.03,11.55,8.62,13.09,2.05.88,3.75.33,5.49-.5,4.85-2.32,7.67-6.43,9.71-11.3,1.4-3.34,3.16-6.52,4.56-9.86.67-1.6,1.27-3.41,1.24-5.11-.13-6.04,2.49-10.52,7.01-14.12,1.85-1.47,3.78-2.78,4.9-5.1,1.58-3.29,1.7-3.51-.76-6.31-1.85,1.34-3.88,2.8-6.2,1.74-2.48-1.13-4.04-3.4-5.52-5.69-1.96-3.03-3.02-6.36-3.77-9.85-1-4.65-4.08-7.17-8.42-8.32-2.47-.66-4.89-1.23-7.22.76-.62.53-2.17.4-3.07.02-3.4-1.41-5.54-4.2-7.18-7.42"/>
  <text class="cls-3" transform="translate(94.58 393.16) scale(1.08 1)"><tspan x="0" y="0">A</tspan></text>
  <text class="cls-3" transform="translate(238.65 393.16) scale(1.08 1)"><tspan x="0" y="0">ri</tspan><tspan class="cls-2" x="65.46" y="0">S</tspan><tspan x="115.28" y="0">tay</tspan></text>
</svg>